# Rhino

mtllib images.mtl
usemtl IMG_0938
v 38.944969177246094 1.1699321269989014 1.7411490678787231
v 37.344966888427734 1.1699321269989014 1.7411490678787231
v 38.944969177246094 2.3699321746826172 1.7411490678787231
v 37.344966888427734 2.3699321746826172 1.7411490678787231
vt 0 0
vt 0 1
vt 1 0
vt 1 1
vn 0 0 1
vn 0 0 1
vn 0 0 1
vn 0 0 1
f 4/4/4 2/2/2 1/1/1 3/3/3
usemtl IMG_0937
v -49.485725402832031 1.1555567979812622 -10.645245552062988
v -49.485725402832031 2.3555567264556885 -10.645245552062988
v -49.485725402832031 1.1555567979812622 -9.0452451705932617
v -49.485725402832031 2.3555567264556885 -9.0452451705932617
vt 0 0
vt 0 1
vt 1 0
vt 1 1
vn -1 0 0
vn -1 0 0
vn -1 0 0
vn -1 0 0
f 8/8/8 6/6/6 5/5/5 7/7/7
usemtl IMG_0946
v -34.733558654785156 -0.27006784081459045 -13.793749809265137
v -34.733558654785156 -0.27006784081459045 -15.393750190734863
v -34.733558654785156 0.92993217706680298 -13.793749809265137
v -34.733558654785156 0.92993217706680298 -15.393750190734863
vt 0 0
vt 0 1
vt 1 0
vt 1 1
vn -1 0 0
vn -1 0 0
vn -1 0 0
vn -1 0 0
f 12/12/12 10/10/10 9/9/9 11/11/11
usemtl IMG_0936
v 34.667903900146484 -0.27006784081459045 1.7411490678787231
v 33.067901611328125 -0.27006784081459045 1.7411490678787231
v 34.667903900146484 0.92993217706680298 1.7411490678787231
v 33.067901611328125 0.92993217706680298 1.7411490678787231
vt 0 0
vt 0 1
vt 1 0
vt 1 1
vn 0 0 1
vn 0 0 1
vn 0 0 1
vn 0 0 1
f 16/16/16 14/14/14 13/13/13 15/15/15
usemtl IMG_0943
v -40.357452392578125 -0.27006784081459045 -16.645513534545898
v -40.357452392578125 1.3299322128295898 -16.645513534545898
v -40.357452392578125 -0.27006784081459045 -17.845514297485352
v -40.357452392578125 1.3299322128295898 -17.845514297485352
vt 0 0
vt 0 1
vt 1 0
vt 1 1
vn 1 0 0
vn 1 0 0
vn 1 0 0
vn 1 0 0
f 20/20/20 18/18/18 17/17/17 19/19/19
usemtl IMG_0932
v 45.006004333496094 -0.29881852865219116 2.4971849918365479
v 45.006004333496094 0.90118145942687988 2.4971849918365479
v 45.006004333496094 -0.29881852865219116 0.89718502759933472
v 45.006004333496094 0.90118145942687988 0.89718502759933472
vt 0 0
vt 0 1
vt 1 0
vt 1 1
vn 1 0 0
vn 1 0 0
vn 1 0 0
vn 1 0 0
f 24/24/24 22/22/22 21/21/21 23/23/23
usemtl IMG_0931
v 34.903430938720703 -0.27006784081459045 3.4680585861206055
v 34.903430938720703 0.92993217706680298 3.4680585861206055
v 34.903430938720703 -0.27006784081459045 1.8680586814880371
v 34.903430938720703 0.92993217706680298 1.8680586814880371
vt 0 0
vt 0 1
vt 1 0
vt 1 1
vn 1 0 0
vn 1 0 0
vn 1 0 0
vn 1 0 0
f 28/28/28 26/26/26 25/25/25 27/27/27
usemtl IMG_0930
v 32.297840118408203 -0.27006784081459045 1.7411490678787231
v 30.697839736938477 -0.27006784081459045 1.7411490678787231
v 32.297840118408203 0.92993217706680298 1.7411490678787231
v 30.697839736938477 0.92993217706680298 1.7411490678787231
vt 0 0
vt 0 1
vt 1 0
vt 1 1
vn 0 0 1
vn 0 0 1
vn 0 0 1
vn 0 0 1
f 32/32/32 30/30/30 29/29/29 31/31/31
usemtl IMG_0926
v 2.2306861877441406 -0.29881852865219116 0.81423741579055786
v 2.2306861877441406 0.90118145942687988 0.81423741579055786
v 3.830686092376709 -0.29881852865219116 0.81423741579055786
v 3.830686092376709 0.90118145942687988 0.81423741579055786
vt 0 0
vt 0 1
vt 1 0
vt 1 1
vn 0 0 1
vn 0 0 1
vn 0 0 1
vn 0 0 1
f 36/36/36 34/34/34 33/33/33 35/35/35
usemtl IMG_0924
v -37.445503234863281 -1.7100678682327271 -2.9292523860931396
v -37.445503234863281 -0.11006782948970795 -2.9292523860931396
v -36.245506286621094 -1.7100678682327271 -2.9292523860931396
v -36.245506286621094 -0.11006782948970795 -2.9292523860931396
vt 0 0
vt 0 1
vt 1 0
vt 1 1
vn 0 0 1
vn 0 0 1
vn 0 0 1
vn 0 0 1
f 40/40/40 38/38/38 37/37/37 39/39/39
